<?xml version="1.0" encoding="UTF-8" standalone="no"?>
<!-- Created with Inkscape (http://www.inkscape.org/) -->

<svg
   width="512"
   height="512"
   viewBox="0 0 512 512"
   version="1.1"
   id="svg1"
   xml:space="preserve"
   inkscape:version="1.4.2 (f4327f4, 2025-05-13)"
   sodipodi:docname="no-bg logo.svg"
   xmlns:inkscape="http://www.inkscape.org/namespaces/inkscape"
   xmlns:sodipodi="http://sodipodi.sourceforge.net/DTD/sodipodi-0.dtd"
   xmlns="http://www.w3.org/2000/svg"
   xmlns:svg="http://www.w3.org/2000/svg"><sodipodi:namedview
     id="namedview1"
     pagecolor="#505050"
     bordercolor="#eeeeee"
     borderopacity="1"
     inkscape:showpageshadow="0"
     inkscape:pageopacity="0"
     inkscape:pagecheckerboard="0"
     inkscape:deskcolor="#505050"
     inkscape:document-units="px"
     showgrid="true"
     inkscape:zoom="0.70710678"
     inkscape:cx="25.455844"
     inkscape:cy="275.06454"
     inkscape:window-width="1920"
     inkscape:window-height="1009"
     inkscape:window-x="-8"
     inkscape:window-y="-8"
     inkscape:window-maximized="1"
     inkscape:current-layer="layer1"><inkscape:grid
       id="grid1"
       units="px"
       originx="0"
       originy="0"
       spacingx="1"
       spacingy="1"
       empcolor="#0099e5"
       empopacity="0.30196078"
       color="#0099e5"
       opacity="0.14901961"
       empspacing="4"
       enabled="true"
       visible="true" /></sodipodi:namedview><defs
     id="defs1" /><g
     inkscape:label="Layer 1"
     inkscape:groupmode="layer"
     id="layer1"><path
       id="path1"
       style="display:inline;fill:#000000;stroke:none;stroke-width:2;stroke-dasharray:none;stroke-opacity:1"
       d="M 256 0 L 34.296875 128 L 34.296875 384 L 256 512 L 477.70312 384 L 477.70312 128 L 256 0 z M 256 32 L 449.99023 144 L 449.99023 368 L 256 480 L 62.009766 368 L 62.009766 144 L 256 32 z M 256 43.535156 L 72 149.76758 L 72 362.23242 L 256 468.46484 L 440 362.23242 L 440 149.76758 L 256 43.535156 z M 256 56 L 429.20508 156 L 429.20508 356 L 256 456 L 82.794922 356 L 82.794922 156 L 256 56 z M 110.77148 188.80078 L 110.77148 323.19922 L 134.58008 323.19922 L 134.58008 235.31445 L 163.42578 282.6875 L 175.54688 262.66211 L 131.31641 188.80078 L 110.77148 188.80078 z M 237.10742 188.80078 L 173.375 299.0293 L 178.74023 307.83984 L 189.875 307.83984 L 234.05078 234.1543 L 234.22852 323.19922 L 257.84375 323.19922 L 257.65234 188.80078 L 237.10742 188.80078 z M 269.13281 188.80078 L 269.13281 209.99023 L 294.0918 209.91992 L 326.73242 209.91992 C 336.71642 209.91992 345.41975 211.83969 352.84375 215.67969 C 360.26775 219.51969 365.96364 224.89659 369.93164 231.80859 C 374.02764 238.59259 376.07617 246.656 376.07617 256 C 376.07617 265.216 374.02764 273.27941 369.93164 280.19141 C 365.96364 287.10341 360.26775 292.48031 352.84375 296.32031 C 345.41975 300.16031 336.71642 302.08008 326.73242 302.08008 L 294.0918 302.08008 L 294.0918 233 L 294 233 L 289 233 L 269.13281 233 L 269.13281 323.19922 L 327.88477 323.19922 C 342.47677 323.19922 355.2752 320.38395 366.2832 314.75195 C 377.2912 309.11995 385.86772 301.31213 392.01172 291.32812 C 398.15572 281.21612 401.22852 269.44 401.22852 256 C 401.22852 242.432 398.15572 230.65587 392.01172 220.67188 C 385.86772 210.68786 377.2912 202.88005 366.2832 197.24805 C 355.2752 191.61605 342.47677 188.80078 327.88477 188.80078 L 269.13281 188.80078 z " /></g></svg>
