<?xml version="1.0" encoding="UTF-8" standalone="no"?>
<!-- Created with Inkscape (http://www.inkscape.org/) -->

<svg
   width="512"
   height="512"
   viewBox="0 0 512 512"
   version="1.1"
   id="svg1"
   xml:space="preserve"
   inkscape:version="1.4.2 (f4327f4, 2025-05-13)"
   sodipodi:docname="websiteicon.svg"
   xmlns:inkscape="http://www.inkscape.org/namespaces/inkscape"
   xmlns:sodipodi="http://sodipodi.sourceforge.net/DTD/sodipodi-0.dtd"
   xmlns="http://www.w3.org/2000/svg"
   xmlns:svg="http://www.w3.org/2000/svg"><sodipodi:namedview
     id="namedview1"
     pagecolor="#505050"
     bordercolor="#eeeeee"
     borderopacity="1"
     inkscape:showpageshadow="0"
     inkscape:pageopacity="0"
     inkscape:pagecheckerboard="0"
     inkscape:deskcolor="#505050"
     inkscape:document-units="px"
     showgrid="true"
     inkscape:zoom="0.39222329"
     inkscape:cx="-716.42864"
     inkscape:cy="197.59153"
     inkscape:window-width="1920"
     inkscape:window-height="1009"
     inkscape:window-x="-8"
     inkscape:window-y="-8"
     inkscape:window-maximized="1"
     inkscape:current-layer="svg1"><inkscape:grid
       id="grid1"
       units="px"
       originx="0"
       originy="0"
       spacingx="1"
       spacingy="1"
       empcolor="#0099e5"
       empopacity="0.30196078"
       color="#0099e5"
       opacity="0.14901961"
       empspacing="4"
       enabled="true"
       visible="true" /></sodipodi:namedview><defs
     id="defs1" /><g
     inkscape:label="Layer 1"
     inkscape:groupmode="layer"
     id="layer1"><path
       sodipodi:type="star"
       style="fill:#000000;stroke:none;stroke-width:2;stroke-dasharray:none;stroke-opacity:1"
       id="path1"
       inkscape:flatsided="true"
       sodipodi:sides="6"
       sodipodi:cx="256"
       sodipodi:cy="256"
       sodipodi:r1="256"
       sodipodi:r2="221.7025"
       sodipodi:arg1="1.5707963"
       sodipodi:arg2="2.0943951"
       inkscape:rounded="0"
       inkscape:randomized="0"
       d="M 256.00001,512 34.2975,384.00001 l -7e-6,-256 L 255.99999,0 477.7025,127.99999 l 1e-5,256 z"
       transform="matrix(1.1547005,0,0,1,-39.603333,0)" /><path
       sodipodi:type="star"
       style="fill:#ffffff;stroke:none;stroke-width:2;stroke-dasharray:none;stroke-opacity:1"
       id="path2"
       inkscape:flatsided="true"
       sodipodi:sides="6"
       sodipodi:cx="256"
       sodipodi:cy="256"
       sodipodi:r1="224"
       sodipodi:r2="193.98969"
       sodipodi:arg1="1.5707963"
       sodipodi:arg2="2.0943951"
       inkscape:rounded="0"
       inkscape:randomized="0"
       d="M 256.00001,480 62.010313,368.00001 l -6e-6,-224 L 255.99999,32 l 193.9897,111.99999 0,224 z"
       transform="matrix(1.2371791,0,0,1,-60.717857,0)" /><path
       sodipodi:type="star"
       style="fill:#ffffff;stroke:none;stroke-width:2;stroke-dasharray:none;stroke-opacity:1"
       id="path3"
       inkscape:flatsided="true"
       sodipodi:sides="6"
       sodipodi:cx="256"
       sodipodi:cy="256"
       sodipodi:r1="192"
       sodipodi:r2="166.27688"
       sodipodi:arg1="1.5707963"
       sodipodi:arg2="2.0943951"
       inkscape:rounded="0"
       inkscape:randomized="0"
       d="m 256.00001,448 -166.276885,-96 -5e-6,-192 166.27687,-96 166.27688,96 1e-5,192 z" /><path
       id="text5"
       style="font-weight:600;font-size:192px;font-family:Montserrat;-inkscape-font-specification:'Montserrat Semi-Bold';letter-spacing:-25px;fill:#000000;stroke-width:3.19258"
       d="M 59.335136,131.76137 V 380.23863 H 92.14981 v -162.4823 l 39.75716,87.58378 16.70614,-37.02313 L 87.6516,131.76137 Z m 174.125014,0 -87.84048,203.79165 7.39474,16.28902 h 15.34672 l 60.88614,-136.23061 0.24497,164.62719 h 32.54817 l -0.26382,-248.47725 z m 44.13962,0 v 39.19332 h 34.2737 v 42.52266 h -34.2737 v 166.76127 h 80.97606 c 20.11172,0 37.7514,-5.20491 52.9234,-15.6174 15.172,-10.4125 26.99274,-24.84771 35.46084,-43.30623 8.46808,-18.69517 12.70324,-40.46697 12.70324,-65.315 0,-25.08465 -4.23516,-46.85648 -12.70324,-65.315 -8.4681,-18.45855 -20.28884,-32.89372 -35.46084,-43.30623 -15.172,-10.4125 -32.81168,-15.61739 -52.9234,-15.61739 z M 312,170.80666 h 44.98758 c 13.76064,0 25.75619,3.5493 35.98847,10.64873 10.23226,7.09942 18.08274,17.0403 23.55171,29.81928 5.6454,12.54232 8.46881,27.45005 8.46881,44.72533 0,17.03863 -2.82341,31.94637 -8.46881,44.72532 -5.46897,12.77898 -13.31945,22.71985 -23.55171,29.81928 -10.23228,7.09944 -22.22783,10.64873 -35.98847,10.64873 H 312 Z" /></g></svg>
